<mxfile host="app.diagrams.net" modified="2023-04-08T22:12:09.706Z" agent="Mozilla/5.0 (Windows NT 10.0; Win64; x64) AppleWebKit/537.36 (KHTML, like Gecko) Chrome/112.0.0.0 Safari/537.36" etag="bnfbWFE8HufFg9r7rTEH" version="21.1.5" type="github">
  <diagram name="Página-1" id="g-y9SnlZ2uHzRrDyMYUF">
    <mxGraphModel dx="1120" dy="484" grid="1" gridSize="10" guides="1" tooltips="1" connect="1" arrows="1" fold="1" page="1" pageScale="1" pageWidth="827" pageHeight="1169" math="0" shadow="0">
      <root>
        <mxCell id="0" />
        <mxCell id="1" parent="0" />
        <mxCell id="a-PyhkYnlChPgB95wnEH-8" style="edgeStyle=orthogonalEdgeStyle;rounded=0;orthogonalLoop=1;jettySize=auto;html=1;" parent="1" source="a-PyhkYnlChPgB95wnEH-1" edge="1">
          <mxGeometry relative="1" as="geometry">
            <mxPoint x="80" y="130" as="targetPoint" />
          </mxGeometry>
        </mxCell>
        <mxCell id="a-PyhkYnlChPgB95wnEH-1" value="Inicio" style="strokeWidth=2;html=1;shape=mxgraph.flowchart.terminator;whiteSpace=wrap;" parent="1" vertex="1">
          <mxGeometry x="30" y="40" width="100" height="60" as="geometry" />
        </mxCell>
        <mxCell id="a-PyhkYnlChPgB95wnEH-9" style="edgeStyle=orthogonalEdgeStyle;rounded=0;orthogonalLoop=1;jettySize=auto;html=1;" parent="1" source="a-PyhkYnlChPgB95wnEH-3" edge="1">
          <mxGeometry relative="1" as="geometry">
            <mxPoint x="80" y="220" as="targetPoint" />
          </mxGeometry>
        </mxCell>
        <mxCell id="a-PyhkYnlChPgB95wnEH-3" value="quantidade" style="shape=parallelogram;html=1;strokeWidth=2;perimeter=parallelogramPerimeter;whiteSpace=wrap;rounded=1;arcSize=12;size=0.23;" parent="1" vertex="1">
          <mxGeometry x="30" y="130" width="100" height="60" as="geometry" />
        </mxCell>
        <mxCell id="a-PyhkYnlChPgB95wnEH-11" style="edgeStyle=orthogonalEdgeStyle;rounded=0;orthogonalLoop=1;jettySize=auto;html=1;" parent="1" source="a-PyhkYnlChPgB95wnEH-5" edge="1">
          <mxGeometry relative="1" as="geometry">
            <mxPoint x="160" y="250" as="targetPoint" />
          </mxGeometry>
        </mxCell>
        <mxCell id="a-PyhkYnlChPgB95wnEH-5" value="resultado" style="shape=parallelogram;html=1;strokeWidth=2;perimeter=parallelogramPerimeter;whiteSpace=wrap;rounded=1;arcSize=12;size=0.23;" parent="1" vertex="1">
          <mxGeometry x="30" y="220" width="100" height="60" as="geometry" />
        </mxCell>
        <mxCell id="a-PyhkYnlChPgB95wnEH-17" style="edgeStyle=orthogonalEdgeStyle;rounded=0;orthogonalLoop=1;jettySize=auto;html=1;" parent="1" source="a-PyhkYnlChPgB95wnEH-13" edge="1">
          <mxGeometry relative="1" as="geometry">
            <mxPoint x="270" y="250" as="targetPoint" />
          </mxGeometry>
        </mxCell>
        <mxCell id="D2Z0qmYtPVozRBrdDt2S-3" style="edgeStyle=orthogonalEdgeStyle;rounded=0;orthogonalLoop=1;jettySize=auto;html=1;entryX=0.5;entryY=0;entryDx=0;entryDy=0;entryPerimeter=0;" parent="1" source="D2Z0qmYtPVozRBrdDt2S-4" target="a-PyhkYnlChPgB95wnEH-41" edge="1">
          <mxGeometry relative="1" as="geometry">
            <mxPoint x="520" y="220" as="targetPoint" />
            <Array as="points">
              <mxPoint x="520" y="160" />
            </Array>
          </mxGeometry>
        </mxCell>
        <mxCell id="D2Z0qmYtPVozRBrdDt2S-7" style="edgeStyle=orthogonalEdgeStyle;rounded=0;orthogonalLoop=1;jettySize=auto;html=1;" parent="1" source="a-PyhkYnlChPgB95wnEH-13" edge="1">
          <mxGeometry relative="1" as="geometry">
            <mxPoint x="200" y="190" as="targetPoint" />
          </mxGeometry>
        </mxCell>
        <mxCell id="a-PyhkYnlChPgB95wnEH-13" value="quantidade &amp;lt;= 0" style="strokeWidth=2;html=1;shape=mxgraph.flowchart.decision;whiteSpace=wrap;" parent="1" vertex="1">
          <mxGeometry x="160" y="215" width="80" height="70" as="geometry" />
        </mxCell>
        <mxCell id="a-PyhkYnlChPgB95wnEH-19" style="edgeStyle=orthogonalEdgeStyle;rounded=0;orthogonalLoop=1;jettySize=auto;html=1;" parent="1" source="a-PyhkYnlChPgB95wnEH-18" edge="1">
          <mxGeometry relative="1" as="geometry">
            <mxPoint x="380" y="250" as="targetPoint" />
          </mxGeometry>
        </mxCell>
        <mxCell id="a-PyhkYnlChPgB95wnEH-18" value="quantidade &amp;lt;12" style="strokeWidth=2;html=1;shape=mxgraph.flowchart.decision;whiteSpace=wrap;" parent="1" vertex="1">
          <mxGeometry x="270" y="215" width="80" height="70" as="geometry" />
        </mxCell>
        <mxCell id="a-PyhkYnlChPgB95wnEH-31" value="" style="edgeStyle=orthogonalEdgeStyle;rounded=0;orthogonalLoop=1;jettySize=auto;html=1;entryX=0.5;entryY=0;entryDx=0;entryDy=0;entryPerimeter=0;" parent="1" source="a-PyhkYnlChPgB95wnEH-20" target="a-PyhkYnlChPgB95wnEH-36" edge="1">
          <mxGeometry relative="1" as="geometry">
            <mxPoint x="420" y="310" as="targetPoint" />
          </mxGeometry>
        </mxCell>
        <mxCell id="a-PyhkYnlChPgB95wnEH-20" value="quantidade &amp;gt;= 12" style="strokeWidth=2;html=1;shape=mxgraph.flowchart.decision;whiteSpace=wrap;" parent="1" vertex="1">
          <mxGeometry x="380" y="215" width="80" height="70" as="geometry" />
        </mxCell>
        <mxCell id="a-PyhkYnlChPgB95wnEH-34" style="edgeStyle=orthogonalEdgeStyle;rounded=0;orthogonalLoop=1;jettySize=auto;html=1;" parent="1" target="a-PyhkYnlChPgB95wnEH-39" edge="1">
          <mxGeometry relative="1" as="geometry">
            <mxPoint x="480" y="400" as="targetPoint" />
            <mxPoint x="420" y="370" as="sourcePoint" />
            <Array as="points">
              <mxPoint x="420" y="410" />
            </Array>
          </mxGeometry>
        </mxCell>
        <mxCell id="a-PyhkYnlChPgB95wnEH-37" style="edgeStyle=orthogonalEdgeStyle;rounded=0;orthogonalLoop=1;jettySize=auto;html=1;entryX=0;entryY=0.5;entryDx=0;entryDy=0;entryPerimeter=0;" parent="1" source="a-PyhkYnlChPgB95wnEH-35" target="a-PyhkYnlChPgB95wnEH-39" edge="1">
          <mxGeometry relative="1" as="geometry">
            <mxPoint x="480" y="400" as="targetPoint" />
            <Array as="points">
              <mxPoint x="310" y="410" />
            </Array>
          </mxGeometry>
        </mxCell>
        <mxCell id="a-PyhkYnlChPgB95wnEH-35" value="quantidade * 1.3" style="shape=parallelogram;html=1;strokeWidth=2;perimeter=parallelogramPerimeter;whiteSpace=wrap;rounded=1;arcSize=12;size=0.23;" parent="1" vertex="1">
          <mxGeometry x="100" y="360" width="100" height="60" as="geometry" />
        </mxCell>
        <mxCell id="a-PyhkYnlChPgB95wnEH-36" value="quantidade*1" style="shape=parallelogram;html=1;strokeWidth=2;perimeter=parallelogramPerimeter;whiteSpace=wrap;rounded=1;arcSize=12;size=0.23;" parent="1" vertex="1">
          <mxGeometry x="370" y="320" width="100" height="60" as="geometry" />
        </mxCell>
        <mxCell id="a-PyhkYnlChPgB95wnEH-40" style="edgeStyle=orthogonalEdgeStyle;rounded=0;orthogonalLoop=1;jettySize=auto;html=1;entryX=0.5;entryY=1;entryDx=0;entryDy=0;entryPerimeter=0;" parent="1" source="a-PyhkYnlChPgB95wnEH-39" target="a-PyhkYnlChPgB95wnEH-41" edge="1">
          <mxGeometry relative="1" as="geometry">
            <mxPoint x="530" y="340" as="targetPoint" />
          </mxGeometry>
        </mxCell>
        <mxCell id="a-PyhkYnlChPgB95wnEH-39" value="resultado:" style="shape=display;whiteSpace=wrap;html=1;" parent="1" vertex="1">
          <mxGeometry x="480" y="380" width="80" height="60" as="geometry" />
        </mxCell>
        <mxCell id="a-PyhkYnlChPgB95wnEH-41" value="fim" style="strokeWidth=2;html=1;shape=mxgraph.flowchart.terminator;whiteSpace=wrap;" parent="1" vertex="1">
          <mxGeometry x="480" y="225" width="80" height="60" as="geometry" />
        </mxCell>
        <mxCell id="D2Z0qmYtPVozRBrdDt2S-4" value="Compra não pode ser menor ou igual a O" style="shape=display;whiteSpace=wrap;html=1;" parent="1" vertex="1">
          <mxGeometry x="160" y="130" width="80" height="60" as="geometry" />
        </mxCell>
        <mxCell id="D2Z0qmYtPVozRBrdDt2S-9" value="" style="rounded=0;whiteSpace=wrap;html=1;strokeWidth=2;" parent="1" vertex="1">
          <mxGeometry x="250" y="460" width="120" height="60" as="geometry" />
        </mxCell>
      </root>
    </mxGraphModel>
  </diagram>
</mxfile>
